<svg width="1485" height="481" viewBox="0 0 1485 481" fill="none" xmlns="http://www.w3.org/2000/svg">
<path d="M23.5492 162.444L40.678 133.898L47.4577 133.898L39.5481 162.147L56.4972 162.147L134.915 162.147L143.39 162.147L140 167.797L143.39 173.446L59.3221 173.446L56.4972 173.446L39.5481 173.446L47.4577 201.695L40.678 201.695L23.5492 173.149L5.08475 173.149C3.73619 173.149 2.44286 172.585 1.48929 171.581C0.535712 170.577 -1.41969e-06 169.216 -1.48174e-06 167.797C-1.54379e-06 166.377 0.535712 165.016 1.48929 164.012C2.44286 163.008 3.73619 162.444 5.08475 162.444L23.5492 162.444Z" fill="black"/>
<path d="M82.4264 167.797L82.4262 131.929C82.4262 124.988 83.9724 118.625 87.0649 112.841C90.3953 106.825 95.6287 102.545 102.765 100V169.411V298.168C102.765 303.027 103.479 307.654 104.906 312.05C106.571 316.446 108.831 320.379 111.686 323.85C114.54 327.089 117.99 329.75 122.034 331.832C126.316 333.683 131.073 334.609 136.307 334.609C142.254 334.609 148.32 333.22 154.505 330.444C160.69 327.668 168.51 322.142 172.316 317.514C170.651 321.447 165.328 326.742 161.998 329.75C158.668 332.526 154.98 334.956 150.936 337.038C147.13 338.889 142.967 340.393 138.448 341.55C134.166 342.475 130.003 342.938 125.959 342.938C118.109 342.938 111.448 341.55 105.977 338.773C100.505 335.997 95.9855 332.295 92.4173 327.668C88.849 322.809 86.2323 317.256 84.5672 311.009C83.1399 304.762 82.4262 298.168 82.4262 291.227L82.4264 167.797Z" fill="black" stroke="black" stroke-width="11.2994"/>
<path d="M358.292 231.136C358.735 230.029 359.288 228.701 359.952 227.152C360.837 225.381 361.28 223.943 361.28 222.836C361.28 215.753 360.173 209.888 357.96 205.24C355.747 200.371 352.648 196.497 348.664 193.62C344.68 190.743 339.921 188.64 334.388 187.312C329.076 185.984 323.211 185.32 316.792 185.32C322.104 182.664 327.969 181.336 334.388 181.336C350.988 181.336 362.829 186.095 369.912 195.612C377.216 204.908 380.868 217.413 380.868 233.128V317.456C380.868 322.547 381.864 327.416 383.856 332.064C385.848 336.491 389.943 338.704 396.14 338.704C401.009 338.704 405.325 337.155 409.088 334.056C407.539 338.483 404.329 342.245 399.46 345.344C394.812 348.221 390.164 349.66 385.516 349.66C380.647 349.66 376.663 348.775 373.564 347.004C370.465 345.233 368.031 342.909 366.26 340.032C364.489 336.933 363.272 333.503 362.608 329.74C362.165 325.756 361.944 321.661 361.944 317.456V233.128C359.288 238.883 355.525 243.641 350.656 247.404C345.787 251.167 340.585 254.487 335.052 257.364C329.519 260.241 323.875 263.119 318.12 265.996C312.587 268.652 307.496 271.751 302.848 275.292C298.2 278.833 294.437 283.149 291.56 288.24C288.683 293.331 287.244 299.749 287.244 307.496C287.244 317.899 290.343 326.199 296.54 332.396C302.959 338.593 311.369 341.692 321.772 341.692C328.191 341.692 334.499 340.475 340.696 338.04C346.893 335.605 352.537 332.507 357.628 328.744C351.873 335.827 344.901 341.139 336.712 344.68C328.523 348 319.891 349.66 310.816 349.66C304.84 349.66 299.085 348.775 293.552 347.004C288.019 345.233 283.039 342.688 278.612 339.368C274.407 335.827 270.976 331.621 268.32 326.752C265.664 321.661 264.336 315.907 264.336 309.488C264.336 301.299 266.107 294.659 269.648 289.568C273.411 284.256 278.169 279.719 283.924 275.956C289.9 272.193 296.429 268.984 303.512 266.328C310.816 263.451 317.899 260.463 324.76 257.364C331.843 254.265 338.372 250.724 344.348 246.74C350.324 242.756 354.972 237.555 358.292 231.136ZM185.32 348C191.739 346.008 195.944 342.577 197.936 337.708C200.149 332.617 201.256 326.973 201.256 320.776V223.5C201.256 221.729 201.145 219.737 200.924 217.524C200.703 215.089 200.149 212.876 199.264 210.884C198.6 208.671 197.493 206.9 195.944 205.572C194.616 204.023 192.735 203.248 190.3 203.248L219.848 182V320.776C219.848 326.531 220.955 331.953 223.168 337.044C225.603 342.135 229.808 345.787 235.784 348H185.32ZM284.92 185.984C287.355 185.984 290.011 186.316 292.888 186.98C295.765 187.423 298.421 188.308 300.856 189.636C303.291 190.743 305.283 192.403 306.832 194.616C308.381 196.608 309.156 199.153 309.156 202.252C309.156 205.351 308.16 208.339 306.168 211.216C304.397 214.093 301.741 215.532 298.2 215.532C294.216 215.532 291.339 214.536 289.568 212.544C288.019 210.331 286.359 207.896 284.588 205.24C283.039 202.584 280.825 200.26 277.948 198.268C275.292 196.055 270.976 194.948 265 194.948C260.131 194.948 254.708 195.944 248.732 197.936C242.756 199.707 237.887 202.031 234.124 204.908C236.559 202.473 239.879 200.149 244.084 197.936C248.511 195.501 253.159 193.399 258.028 191.628C262.897 189.857 267.767 188.529 272.636 187.644C277.505 186.537 281.6 185.984 284.92 185.984ZM398.347 182H449.143C445.823 183.107 443.389 185.099 441.839 187.976C440.29 190.853 439.515 193.952 439.515 197.272C439.515 198.379 439.626 199.596 439.847 200.924C440.069 202.252 440.401 203.469 440.843 204.576L491.971 318.452L539.115 211.88C540.001 209.445 540.443 206.679 540.443 203.58C540.443 198.489 539.115 193.841 536.459 189.636C533.803 185.431 529.819 182.885 524.507 182H575.303C568.885 183.107 563.13 185.873 558.039 190.3C553.17 194.727 549.518 199.817 547.083 205.572L483.671 348.664L421.919 208.892C419.263 202.695 416.275 197.383 412.955 192.956C409.635 188.308 404.766 184.656 398.347 182ZM575.218 268.984C575.218 255.925 577.099 244.195 580.862 233.792C584.624 223.168 590.047 214.093 597.13 206.568C604.434 198.821 613.176 192.956 623.358 188.972C633.76 184.767 645.602 182.664 658.882 182.664C669.063 182.664 677.916 184.767 685.442 188.972C692.967 192.956 699.164 198.379 704.034 205.24C709.124 212.101 712.887 219.959 715.322 228.812C717.978 237.444 719.306 246.297 719.306 255.372H595.138C595.138 265.332 596.244 275.181 598.458 284.92C600.671 294.659 604.212 303.401 609.082 311.148C614.172 318.673 620.702 324.871 628.67 329.74C636.859 334.388 646.708 336.712 658.218 336.712C663.308 336.712 668.842 336.269 674.818 335.384C681.015 334.499 686.991 333.06 692.746 331.068C698.5 328.855 703.812 326.088 708.682 322.768C713.551 319.448 717.203 315.353 719.638 310.484C717.203 316.681 713.662 322.325 709.014 327.416C704.587 332.285 699.386 336.491 693.41 340.032C687.655 343.352 681.458 345.897 674.818 347.668C668.399 349.439 661.87 350.324 655.23 350.324C643.72 350.324 633.096 348.221 623.358 344.016C613.619 339.811 605.208 334.056 598.126 326.752C591.043 319.448 585.399 310.816 581.194 300.856C577.21 290.896 575.218 280.272 575.218 268.984ZM595.47 250.724H681.79C688.872 250.724 694.184 248.4 697.726 243.752C701.267 238.883 703.038 233.239 703.038 226.82C703.038 220.18 701.599 214.315 698.722 209.224C696.066 203.912 692.414 199.596 687.766 196.276C683.339 192.735 678.138 190.079 672.162 188.308C666.407 186.316 660.542 185.32 654.566 185.32C646.376 185.32 638.63 187.312 631.326 191.296C624.243 195.059 618.046 200.039 612.734 206.236C607.422 212.433 603.216 219.516 600.118 227.484C597.019 235.231 595.47 242.977 595.47 250.724ZM734.339 348C740.979 345.565 745.406 341.803 747.619 336.712C750.054 331.621 751.271 325.756 751.271 319.116V144.816C751.271 142.824 751.05 140.611 750.607 138.176C750.386 135.741 749.832 133.417 748.947 131.204C748.283 128.769 747.176 126.777 745.627 125.228C744.078 123.679 741.975 122.904 739.319 122.904L769.863 100.66L770.195 319.116C770.195 325.756 771.302 331.621 773.515 336.712C775.95 341.803 780.487 345.565 787.127 348H734.339Z" fill="black"/>
<path fill-rule="evenodd" clip-rule="evenodd" d="M964.997 345.883C960.826 349.531 954.601 349.531 950.431 345.882C946.556 342.491 942.805 339.13 939.178 335.799C1005.15 298.652 1012.56 210.514 1012.71 208.684L1012.71 208.655C1000.11 236.915 982.133 248.652 969.953 253.507C960.892 257.206 950.826 257.642 941.479 254.738C913.324 245.742 910.046 212.007 910.046 212.007C901.118 237.988 912.655 254.388 915.25 258.078C915.304 258.154 915.354 258.225 915.399 258.29C916.433 259.767 917.912 261.417 919.478 263.165C921.337 265.239 923.318 267.45 924.82 269.667C940.754 293.454 937.013 312.474 928.673 325.899C909.726 307.553 894.678 290.141 883.53 273.662C867.185 249.502 859.008 227.136 859 206.562C859 175.714 868.925 151.139 888.774 132.836C908.624 114.533 931.604 105.381 957.713 105.381C983.823 105.381 1006.81 114.533 1026.66 132.836C1046.52 151.139 1056.44 175.714 1056.43 206.562C1056.43 227.127 1048.25 249.494 1031.91 273.662C1016.78 296.025 994.481 320.098 964.997 345.883ZM980.801 216.539C980.417 229.077 969.941 238.93 957.403 238.546C944.864 238.162 935.012 227.686 935.396 215.148C935.78 202.609 946.256 192.757 958.794 193.141C971.332 193.525 981.185 204.001 980.801 216.539Z" fill="#86B817"/>
<path d="M1072.73 312.808C1072.73 303.955 1074.84 296.54 1079.04 290.564C1083.25 284.588 1088.56 279.719 1094.98 275.956C1101.4 272.193 1108.48 269.205 1116.23 266.992C1123.97 264.557 1131.5 262.565 1138.8 261.016C1146.11 259.467 1152.64 257.917 1158.39 256.368C1164.14 254.819 1168.24 252.937 1170.67 250.724V232.132C1170.67 226.82 1170.12 221.397 1169.01 215.864C1167.91 210.331 1166.03 205.351 1163.37 200.924C1160.71 196.497 1157.17 192.845 1152.75 189.968C1148.54 187.091 1143.23 185.652 1136.81 185.652C1133.93 185.652 1130.5 186.095 1126.52 186.98C1122.76 187.644 1119.1 188.751 1115.56 190.3C1112.02 191.849 1109.03 193.952 1106.6 196.608C1104.16 199.043 1102.95 202.141 1102.95 205.904C1102.95 208.339 1103.17 210.663 1103.61 212.876C1104.27 215.089 1104.61 217.413 1104.61 219.848C1104.61 228.037 1100.4 232.132 1091.99 232.132C1088.23 232.132 1085.35 230.915 1083.36 228.48C1081.37 225.824 1080.37 222.725 1080.37 219.184C1080.37 213.651 1082.58 208.56 1087.01 203.912C1091.44 199.264 1096.75 195.28 1102.95 191.96C1109.37 188.64 1115.89 186.095 1122.53 184.324C1129.4 182.553 1135.15 181.668 1139.8 181.668C1157.28 181.668 1169.9 185.984 1177.65 194.616C1185.39 203.248 1189.27 216.085 1189.27 233.128V317.124C1189.27 322.215 1190.26 326.973 1192.25 331.4C1194.47 335.605 1198.56 337.708 1204.54 337.708C1209.41 337.708 1213.72 336.159 1217.49 333.06C1216.16 337.487 1212.95 341.249 1207.86 344.348C1202.99 347.225 1198.34 348.664 1193.91 348.664C1189.05 348.664 1185.06 347.779 1181.96 346.008C1178.86 344.237 1176.43 341.913 1174.66 339.036C1173.11 336.159 1172 332.839 1171.34 329.076C1170.9 325.313 1170.67 321.329 1170.67 317.124V256.368C1163.37 258.581 1155.29 260.905 1146.44 263.34C1137.81 265.553 1129.73 268.541 1122.2 272.304C1114.9 276.067 1108.7 281.047 1103.61 287.244C1098.52 293.22 1095.97 301.188 1095.97 311.148C1095.97 320.444 1098.85 327.748 1104.61 333.06C1110.36 338.372 1117.89 341.028 1127.18 341.028C1133.82 341.028 1140.35 340.143 1146.77 338.372C1153.19 336.601 1159.17 333.835 1164.7 330.072C1157.84 336.933 1150.42 341.803 1142.45 344.68C1134.49 347.336 1125.63 348.664 1115.89 348.664C1110.36 348.664 1104.94 348 1099.63 346.672C1094.54 345.123 1090 342.909 1086.01 340.032C1082.03 336.933 1078.82 333.171 1076.39 328.744C1073.95 324.096 1072.73 318.784 1072.73 312.808ZM1224.32 186.316V182H1237.93V146.144C1237.93 139.504 1239.37 133.417 1242.24 127.884C1245.34 122.129 1250.21 118.035 1256.85 115.6V182H1286.73V186.316H1256.85V305.172C1256.85 309.82 1257.52 314.247 1258.84 318.452C1260.39 322.657 1262.5 326.42 1265.15 329.74C1267.81 332.839 1271.02 335.384 1274.78 337.376C1278.76 339.147 1283.19 340.032 1288.06 340.032C1293.59 340.032 1299.24 338.704 1304.99 336.048C1310.75 333.392 1315.39 329.851 1318.94 325.424C1317.39 329.187 1315.06 332.507 1311.96 335.384C1308.87 338.04 1305.43 340.364 1301.67 342.356C1298.13 344.127 1294.26 345.565 1290.05 346.672C1286.07 347.557 1282.19 348 1278.43 348C1271.13 348 1264.93 346.672 1259.84 344.016C1254.75 341.36 1250.54 337.819 1247.22 333.392C1243.9 328.744 1241.47 323.432 1239.92 317.456C1238.59 311.48 1237.93 305.172 1237.93 298.532V186.316H1224.32ZM1340.97 320.776V223.168C1340.97 221.397 1340.86 219.405 1340.64 217.192C1340.42 214.757 1339.98 212.544 1339.31 210.552C1338.65 208.339 1337.54 206.568 1335.99 205.24C1334.67 203.691 1332.79 202.916 1330.35 202.916L1359.9 182V320.776C1359.9 324.76 1360.12 328.08 1360.56 330.736C1361.01 333.392 1361.78 335.716 1362.89 337.708C1364.21 339.479 1365.87 341.139 1367.87 342.688C1370.08 344.237 1372.85 346.008 1376.17 348H1325.04C1331.46 346.008 1335.66 342.467 1337.65 337.376C1339.87 332.285 1340.97 326.752 1340.97 320.776ZM1436.26 320.776V256.7C1436.26 254.929 1436.15 252.937 1435.93 250.724C1435.71 248.289 1435.15 245.965 1434.27 243.752C1433.6 241.539 1432.61 239.768 1431.28 238.44C1429.95 236.891 1428.07 236.116 1425.63 236.116L1455.18 215.2V320.776C1455.18 326.752 1456.29 332.285 1458.5 337.376C1460.72 342.467 1465.03 346.008 1471.45 348H1420.65C1427.07 345.787 1431.28 342.245 1433.27 337.376C1435.26 332.507 1436.26 326.973 1436.26 320.776ZM1437.59 174.364C1439.8 174.364 1442.12 174.585 1444.56 175.028C1447.21 175.471 1449.54 176.356 1451.53 177.684C1453.74 178.791 1455.51 180.34 1456.84 182.332C1458.39 184.103 1459.17 186.427 1459.17 189.304C1459.17 193.731 1457.73 196.94 1454.85 198.932C1452.19 200.703 1448.87 201.588 1444.89 201.588C1440.91 201.588 1437.81 200.924 1435.59 199.596C1433.6 198.047 1431.61 196.497 1429.62 194.948C1427.85 193.177 1425.63 191.628 1422.98 190.3C1420.54 188.751 1417 187.976 1412.35 187.976C1409.48 187.976 1406.05 188.64 1402.06 189.968C1398.08 191.296 1393.98 193.067 1389.78 195.28C1385.79 197.493 1381.81 199.928 1377.83 202.584C1374.06 205.019 1370.85 207.564 1368.2 210.22C1372.85 204.244 1378.16 199.043 1384.13 194.616C1390.11 189.968 1396.2 186.205 1402.39 183.328C1408.59 180.229 1414.68 178.016 1420.65 176.688C1426.85 175.139 1432.5 174.364 1437.59 174.364Z" fill="black"/>
</svg>
