<svg width="300" height="300" viewBox="0 0 300 300" fill="none" xmlns="http://www.w3.org/2000/svg">
<path fill-rule="evenodd" clip-rule="evenodd" d="M193.353 263.437C197.524 267.086 203.748 267.086 207.919 263.438C237.403 237.653 259.707 213.58 274.831 191.217C291.176 167.049 299.349 144.682 299.349 124.117C299.365 93.2692 289.445 68.6937 269.587 50.3906C249.729 32.0876 226.745 22.936 200.636 22.936C174.526 22.936 151.546 32.0876 131.697 50.3906C111.847 68.6937 101.922 93.2692 101.922 124.117C101.931 144.691 110.107 167.057 126.453 191.217C137.683 207.817 152.87 225.364 172.015 243.859C172.166 243.713 172.313 243.573 172.455 243.437C173.69 242.257 174.583 241.403 175.37 240.45L192.319 209.377L174.912 106.699C173.804 101.988 172.383 97.8812 170.648 94.3776C168.937 90.715 166.092 87.6168 162.115 85.083L195.81 90.0361C193.491 90.5074 191.666 91.7009 190.334 93.6168C189.003 95.5326 188.162 97.683 187.811 100.068C187.624 101.34 187.949 104.23 188.786 108.739C189.647 113.089 190.819 118.377 192.304 124.606C193.811 130.675 195.469 137.253 197.277 144.341C199.085 151.429 200.793 158.177 202.401 164.586C204.155 171.016 205.71 176.767 207.064 181.839C208.225 180.061 210.014 177.075 212.431 172.882C214.994 168.711 217.87 163.936 221.061 158.558C224.398 153.201 227.771 147.605 231.178 141.771C234.732 135.959 237.935 130.501 240.785 125.397C243.635 120.294 246.025 115.772 247.954 111.833C248.816 110.507 248.816 107.682 248.816 107.682C248.816 107.427 248.819 107.144 248.823 106.839C248.86 103.76 248.924 98.4349 245.803 97.385L279.498 102.338C275.123 102.507 271.087 103.944 267.39 106.649C263.692 109.354 260.659 112.644 258.289 116.519C244.629 139.038 231.19 161.59 217.97 184.173C211.722 194.922 206.736 205.02 201.75 215.118C196.324 226.106 190.898 237.095 183.844 248.925C183.121 250.138 182.007 251.329 180.959 252.303C184.939 255.978 189.071 259.689 193.353 263.437Z" fill="#86B817"/>
<path d="M23.5493 96.4441L40.6781 67.8982L47.4578 67.8982L39.5482 96.1468L56.4973 96.1468L134.915 96.1468L143.39 96.1468L140 101.797L143.39 107.446L59.3222 107.446L56.4973 107.446L39.5482 107.446L47.4578 135.695L40.6781 135.695L23.5493 107.149L5.08488 107.149C3.73632 107.149 2.44299 106.585 1.48942 105.581C0.535842 104.577 0.00012828 103.216 0.000128218 101.797C0.000128156 100.377 0.535842 99.0156 1.48942 98.0118C2.44299 97.0081 3.73632 96.4441 5.08488 96.4441L23.5493 96.4441Z" fill="black"/>
<path d="M82.4263 101.797V65.929C82.4263 58.9879 83.9726 52.6252 87.065 46.841C90.3954 40.8254 95.6288 36.5451 102.765 34V103.411V232.168C102.765 237.027 103.479 241.654 104.906 246.05C106.571 250.446 108.831 254.379 111.686 257.85C114.54 261.089 117.99 263.75 122.034 265.832C126.316 267.683 131.073 268.609 136.307 268.609C142.254 268.609 148.32 267.22 154.505 264.444C160.69 261.668 168.51 256.142 172.316 251.514C170.651 255.447 165.328 260.742 161.998 263.75C158.668 266.526 154.981 268.956 150.937 271.038C147.13 272.889 142.967 274.393 138.448 275.55C134.166 276.475 130.003 276.938 125.959 276.938C118.109 276.938 111.448 275.55 105.977 272.773C100.505 269.997 95.9856 266.295 92.4174 261.668C88.8491 256.809 86.2325 251.256 84.5673 245.009C83.14 238.762 82.4263 232.168 82.4263 225.227V101.797Z" fill="black"/>
</svg>
